<?xml version="1.0" encoding="iso-8859-1"?>
<!-- Generator: Adobe Illustrator 19.0.0, SVG Export Plug-In . SVG Version: 6.00 Build 0)  -->
<svg version="1.1" id="Layer_1" xmlns="http://www.w3.org/2000/svg" xmlns:xlink="http://www.w3.org/1999/xlink" x="0px" y="0px"
	 viewBox="0 0 512.058 512.058" style="enable-background:new 0 0 512.058 512.058;" xml:space="preserve">
<g>
	<path style="fill:#415A6B;" d="M332.8,293.357l-2.133,76.8c0,8.533,6.4,14.933,14.933,14.933c8.533,0,14.933-6.4,14.933-14.933
		l1.067-75.733L332.8,293.357z"/>
	<path style="fill:#415A6B;" d="M320,400.024l-40.533-61.867l10.667-48l-53.333-2.133l0,0c-4.267,16-1.067,34.133,8.533,48
		l51.2,78.933c14.933,22.4,40.533,34.133,67.2,29.867l53.333-8.533l1.067-28.8l-58.667,9.6
		C343.467,419.224,328.533,412.824,320,400.024z"/>
	
		<rect x="424.786" y="424.519" transform="matrix(0.2065 0.9784 -0.9784 0.2065 823.4042 -85.2306)" style="fill:#415A6B;" width="78.93" height="81.063"/>
</g>
<path style="fill:#E8EAE9;" d="M236.8,46.957c-4.267-4.267-9.6-7.467-16-8.533L71.467,0.024l-16,65.067l140.8,36.267l55.467,54.4
	l48-46.933L236.8,46.957z"/>
<path style="fill:#F3705A;" d="M384,330.691l24.533,116.267c1.067,5.333,6.4,8.533,11.733,7.467l80-16
	c5.333-1.067,8.533-6.4,7.467-11.733L489.6,342.424c13.867-6.4,21.333-22.4,13.867-37.333L444.8,184.557
	c-14.933-29.867-51.2-42.667-81.067-27.733l0,0L297.6,91.757c-4.267-4.267-11.733-4.267-16,0l-49.067,49.067l-2.133,19.2
	c-6.4,51.2-4.267,103.467,6.4,154.667l0,0L384,330.691z"/>
<path style="fill:#FFD15C;" d="M117.333,279.491c0,33.067-26.667,59.733-58.667,59.733S0,312.557,0,279.491
	s58.667-117.333,58.667-117.333S117.333,246.424,117.333,279.491z"/>
<path style="fill:#FFFFFF;" d="M58.667,321.091c-22.4,0-40.533-18.133-40.533-41.6c0-4.267,3.2-7.467,7.467-7.467
	s7.467,3.2,7.467,7.467c0,14.933,11.733,26.667,25.6,26.667c4.267,0,7.467,3.2,7.467,7.467
	C66.133,317.891,62.933,321.091,58.667,321.091z"/>
<path style="fill:#FFD15C;" d="M97.067,472.557c0,22.4-17.067,39.467-38.4,39.467s-38.4-18.133-38.4-39.467
	c0-22.4,38.4-76.8,38.4-76.8S97.067,450.157,97.067,472.557z"/>
<path style="fill:#FFFFFF;" d="M58.667,499.224C43.733,499.224,32,487.491,32,471.491c0-3.2,2.133-5.333,5.333-5.333
	c3.2,0,5.333,2.133,5.333,5.333c0,9.6,7.467,17.067,17.067,17.067c2.133,0,5.333,2.133,5.333,5.333
	C62.933,497.091,60.8,499.224,58.667,499.224z"/>
<g>
</g>
<g>
</g>
<g>
</g>
<g>
</g>
<g>
</g>
<g>
</g>
<g>
</g>
<g>
</g>
<g>
</g>
<g>
</g>
<g>
</g>
<g>
</g>
<g>
</g>
<g>
</g>
<g>
</g>
</svg>
